<svg width="128" height="128" viewBox="0 0 128 128" fill="none" xmlns="http://www.w3.org/2000/svg">
  <circle cx="64" cy="64" r="31" fill="#06185F"></circle>

  <path d="M64 18V33" stroke="#155EEF" stroke-width="7" stroke-linecap="round"></path>
  <circle cx="64" cy="15" r="10" fill="white" stroke="#155EEF" stroke-width="7"></circle>

  <path d="M39 80L24 90" stroke="#06185F" stroke-width="7" stroke-linecap="round"></path>
  <circle cx="18" cy="94" r="10" fill="white" stroke="#06185F" stroke-width="7"></circle>

  <path d="M89 80L104 90" stroke="#155EEF" stroke-width="7" stroke-linecap="round"></path>
  <circle cx="110" cy="94" r="10" fill="white" stroke="#155EEF" stroke-width="7"></circle>

  <path d="M42 35C28 43 19 58 19 75" stroke="#155EEF" stroke-width="7" stroke-linecap="round"></path>
  <path d="M86 35C99 42 108 56 109 72" stroke="#155EEF" stroke-width="7" stroke-linecap="round"></path>
  <path d="M104 68L110 76L118 70" stroke="#155EEF" stroke-width="7" stroke-linecap="round" stroke-linejoin="round"></path>

  <path d="M37 103C52 114 75 115 92 104" stroke="#155EEF" stroke-width="7" stroke-linecap="round"></path>
  <path d="M42 95L34 101L40 109" stroke="#155EEF" stroke-width="7" stroke-linecap="round" stroke-linejoin="round"></path>

  <rect x="42" y="53" width="44" height="28" rx="10" fill="white"></rect>
  <rect x="51" y="63" width="7" height="11" rx="3.5" fill="#06185F"></rect>
  <rect x="70" y="63" width="7" height="11" rx="3.5" fill="#06185F"></rect>
  <path d="M37 63C33 63 31 66 31 69C31 72 33 75 37 75" stroke="white" stroke-width="6" stroke-linecap="round"></path>
  <path d="M91 63C95 63 97 66 97 69C97 72 95 75 91 75" stroke="white" stroke-width="6" stroke-linecap="round"></path>

  <circle cx="64" cy="45" r="5" fill="white"></circle>
</svg>